<svg width="147" height="147" viewBox="0 0 147 147" fill="none" xmlns="http://www.w3.org/2000/svg">
<path d="M63.2546 2.81789C92.3374 2.81789 117.099 26.2982 117.099 54.7456V67.1649C117.87 73.8124 121.569 82.3295 132.483 85.2249C141.759 87.6855 135.877 102.158 126.149 102.158C126.149 102.158 117.734 102.832 113.932 106.447C110.432 109.775 110.188 116.858 110.086 117.736C109.984 118.614 109.314 123.664 106.918 126.315C104.269 129.248 99.0908 130.181 97.6427 130.379C96.1945 130.578 92.5187 130.31 89.7244 131.734C87.2265 133.007 85.8695 134.121 84.521 136.532C83.1635 138.959 83.6659 140.663 81.8061 142.345C81.0979 142.986 80.6548 143.34 79.7699 143.7C78.8553 144.072 78.0549 144.131 77.2813 144.151C33.8438 145.28 9.86263 115.027 9.86263 82.7414V54.7456H9.88556C9.86263 25.3951 34.1718 2.81789 63.2546 2.81789Z" fill="#BFD2D3"/>
<path d="M24.4217 53.3051C24.4217 28.1789 60.8195 3.75719 60.8195 3.75719C60.8195 3.75719 48.9969 4.21083 42.0335 6.8099C33.383 10.0387 28.6542 13.273 22.5431 20.1949C15.6301 28.0251 13.8698 34.2937 11.0487 44.3392L11.0367 44.3818C6.5242 60.4504 8.72146 70.5909 11.0367 87.1198C12.3793 96.7044 12.2316 102.59 16.4377 111.307C20.3281 119.369 23.7849 123.499 30.5272 129.388C37.4578 135.442 42.2016 138.297 50.9569 141.129C62.0503 144.718 80.7795 142.538 80.7795 142.538C80.7795 142.538 24.4217 131.971 24.4217 88.5287V53.3051Z" fill="#A6B6B7"/>
<path d="M59.8802 4.46166C59.8802 4.46166 60.0887 4.44342 60.4751 4.43576C63.19 4.33208 74.577 4.05578 81.7188 6.34025C90.6626 9.20113 95.6295 12.2622 102.149 19.0208C108.482 25.5867 111.027 30.5539 113.89 39.2156C117.209 49.2595 113.342 55.9824 116.003 66.2204C117.683 72.6819 117.46 77.3965 122.109 82.1885C126.511 86.7265 135 87.5 136.903 90.5C138.062 92.3281 137.901 94.1224 136.903 96.0431C135.558 98.629 133 98.5 130.093 99.0959C116.202 101.943 102.149 87.1198 100.74 77.7268C99.3307 68.3339 101.679 45.556 90.1725 24.1869C79.8783 5.06895 63.7574 4.37071 60.4751 4.43576C60.0907 4.45044 59.8802 4.46166 59.8802 4.46166Z" fill="#768182"/>
<path d="M115.89 66.9123V67.0747L115.909 67.2359C116.79 74.8579 121.125 85.0074 133.935 88.4155C135.508 88.834 136.161 89.6321 136.451 90.4584C136.791 91.4229 136.762 92.8288 136.138 94.4368C134.859 97.7341 131.681 100.482 128.091 100.482H127.978L127.866 100.491L128.091 103.3C127.866 100.491 127.865 100.492 127.864 100.492L127.863 100.492L127.86 100.492L127.85 100.493L127.823 100.495C127.8 100.497 127.769 100.5 127.73 100.503C127.707 100.506 127.681 100.508 127.652 100.511C127.585 100.517 127.503 100.526 127.407 100.536C127.133 100.566 126.746 100.611 126.271 100.679C125.327 100.812 124.021 101.033 122.575 101.382C119.818 102.047 116.021 103.298 113.479 105.722C111.04 108.047 109.92 111.443 109.358 113.975C109.064 115.299 108.895 116.521 108.792 117.461C108.741 117.932 108.705 118.336 108.68 118.646C108.678 118.675 108.673 118.728 108.669 118.785C108.661 118.889 108.651 119.009 108.65 119.026C108.648 119.043 108.647 119.058 108.646 119.072C108.643 119.1 108.641 119.123 108.64 119.142C108.638 119.166 108.637 119.176 108.636 119.177C108.592 119.56 108.413 120.937 107.973 122.507C107.511 124.15 106.86 125.645 106.058 126.535C105.151 127.541 103.647 128.35 101.952 128.938C100.311 129.507 98.7877 129.768 98.1504 129.855C97.9389 129.884 97.581 129.902 96.9051 129.93C96.2943 129.956 95.52 129.99 94.6879 130.068C93.0554 130.221 90.9606 130.565 89.0409 131.546C87.6431 132.261 86.3996 133.012 85.2891 134.016C84.1602 135.036 83.279 136.216 82.4667 137.672C81.7052 139.037 81.3547 140.319 81.1266 141.153C81.0847 141.306 81.047 141.444 81.0116 141.564C80.7928 142.31 80.6361 142.625 80.2195 143.003C79.5938 143.57 79.4172 143.693 78.9362 143.89C78.4617 144.083 78.0378 144.133 77.3475 144.151C55.5345 144.72 38.8292 137.4 27.5757 126.082C16.2927 114.734 10.3323 99.208 10.3323 83.1098V56.8158H10.3582L10.3561 53.9957C10.3336 25.1365 34.1714 2.81789 62.8766 2.81789C91.58 2.81789 115.89 26.0744 115.89 53.9979V66.9123Z" stroke="#303133" stroke-width="5.63578"/>
<circle cx="40.1549" cy="45.3211" r="14.7939" fill="#2F3555" stroke="#2F3555" stroke-width="5.63578"/>
<path d="M40.3898 45.3211C40.3898 50.6384 40.3898 54.9489 40.3898 54.9489C34.9428 54.9489 30.5272 50.6384 30.5272 45.3211C30.5272 40.0038 34.9428 35.6933 40.3898 35.6933C40.3898 35.6933 40.3898 40.0038 40.3898 45.3211Z" fill="#52D784"/>
<circle cx="84.7716" cy="45.3211" r="14.7939" fill="#2F3555" stroke="#2F3555" stroke-width="5.63578"/>
<path d="M85.0064 45.3211C85.0064 50.6384 85.0064 54.9489 85.0064 54.9489C79.5594 54.9489 75.1438 50.6384 75.1438 45.3211C75.1438 40.0038 79.5594 35.6933 85.0064 35.6933C85.0064 35.6933 85.0064 40.0038 85.0064 45.3211Z" fill="#60D5DC"/>
</svg>
